<?xml version="1.0" encoding="UTF-8"?>
<svg xmlns="http://www.w3.org/2000/svg" viewBox="0 0 2000 2000">
  <defs>
    <style>
      .cls-1, .cls-2 {
        stroke-width: 0px;
      }

      .cls-2, .cls-3 {
        fill: #fff;
      }

      .cls-4 {
        fill: #87b9ff;
      }

      .cls-4, .cls-3 {
        stroke: #000;
        stroke-miterlimit: 10;
        stroke-width: 10px;
      }
    </style>
  </defs>
  <g id="_レイヤー_7" data-name="レイヤー 7">
    <path class="cls-4" d="M1038.17,426.04c.04.62,1.82,3.15,2.03,3.52,40.44,72.16,39.46,168.23,27.28,247.59-6.13,39.91-45.93,263.2-136.93,304.24-91.25,41.14-498.98,31.43-632.19-94.07-167.53-157.84-2.68-390.12-.54-423.53,3.44-53.67,18.09-106.58,42.57-154.46,20.33-39.76,42.06-65.5,75.88-94.14,14.46-12.25,52.44-30.68,76.99-33.25,44.78,20.21,90.64,57.49,109.39,83.34,29.37-8.33,124.25-4.53,148.02-.71,39,6.27,78.16,13.44,114.81,28.29,29.34-23.66,68.24-35.16,105.75-31.19,40.82,40.5,61.49,79.45,66.95,164.38Z"/>
    <path class="cls-1" d="M755.16,458c2.93,13.77,3.42,34.65.22,52.78-7.19,40.79-28.88,71.06-48.43,67.61-19.56-3.45-29.58-39.31-22.39-80.1,2.79-15.84,7.77-30.09,13.96-41.4"/>
    <path class="cls-1" d="M977.77,628.38c42.46,5.46,84.47,13.96,125.72,25.38,1.86.52,2.66-2.38.8-2.89-41.52-11.5-83.79-20-126.52-25.49-1.91-.25-1.89,2.76,0,3h0Z"/>
    <path class="cls-1" d="M966.62,658.91c42.7,5.16,84.61,15.64,124.75,31.1,1.8.69,2.58-2.21.8-2.89-40.41-15.56-82.57-26.01-125.55-31.21-1.91-.23-1.9,2.77,0,3h0Z"/>
    <path class="cls-1" d="M975.49,706.82c43.52,3.68,86.16,14.9,125.86,33.11,1.74.8,3.27-1.79,1.51-2.59-40.21-18.45-83.29-29.79-127.38-33.52-1.92-.16-1.91,2.84,0,3h0Z"/>
    <path class="cls-1" d="M574.51,555.45c-42.28-9.51-85.2-15.98-128.41-19.39-5.77-.46-5.74,8.55,0,9,42.41,3.35,84.51,9.74,126.01,19.07,5.64,1.27,8.05-7.41,2.39-8.68h0Z"/>
    <path class="cls-1" d="M574.55,587.95c-42.41-9.87-85.92-14.49-129.46-13.69-5.78.11-5.8,9.11,0,9,42.76-.79,85.4,3.67,127.06,13.37,5.64,1.31,8.04-7.36,2.39-8.68h0Z"/>
    <path class="cls-1" d="M549.83,629.94c-42.79-11.59-87.38-15.75-131.58-12.16-5.73.46-5.78,9.47,0,9,43.45-3.52,87.11.44,129.18,11.84,5.6,1.52,7.99-7.16,2.39-8.68h0Z"/>
    <path class="cls-1" d="M887.46,476.35c-6.11,12.68-11.53,32.86-12.71,51.23-2.67,41.33,11.24,75.87,31.06,77.15,19.82,1.28,38.04-31.19,40.71-72.52,1.04-16.05-.43-31.07-3.76-43.52"/>
  </g>
  <g id="_レイヤー_5" data-name="レイヤー 5">
    <path class="cls-4" d="M907.5,804.62c1.32-33.51,7.27-69.53,18.59-108.24,16.04-39.51,43.5-78.85,74.39-109.15,34.18-33.52,75.74-64.24,119.94-86.93,16.8-22.87,37.29-44.19,58.12-63.46,5.15-4.76,10.38-9.55,16.47-13.02,7.95-4.53,17.24-6.66,26.37-6.05,15.16,2.12,31.67,8.58,44.02,17.63,33.89,24.86,61.02,54.34,89,84.91,70.98.27,146.78,9.99,210.99,40.25,39.73,18.72,90.94,49.59,120.62,75.39,36.7-21,75.86-13.12,109.41-4.61,18.98,20.72,25.42,73.41,25.42,102.14,24.7,34.83,42.17,63.88,41.84,110.85,9.22,112.92-73.03,365.32-260.13,392.2-192.1,27.59-707.61-111.91-695.04-431.91Z"/>
    <g>
      <path class="cls-2" d="M1316.14,610.73c31.56,17.82,66.08,30.39,101.71,37.02"/>
      <path class="cls-1" d="M1313.87,614.61c32,17.96,66.73,30.66,102.78,37.48,5.66,1.07,8.09-7.6,2.39-8.68-35.33-6.68-69.27-18.97-100.63-36.57-5.06-2.84-9.6,4.93-4.54,7.77h0Z"/>
    </g>
    <g>
      <path class="cls-2" d="M1580.09,711.83c27.1,17.82,56.75,30.39,87.36,37.02"/>
      <path class="cls-1" d="M1577.82,715.72c27,17.63,56.91,30.53,88.43,37.48,5.64,1.24,8.06-7.43,2.39-8.68-30.83-6.8-59.86-19.32-86.28-36.57-4.86-3.18-9.38,4.61-4.54,7.77h0Z"/>
    </g>
  </g>
  <g id="_レイヤー_6" data-name="レイヤー 6">
    <path class="cls-4" d="M1851.37,1077.47c42.62,36.99,49.93,112.28,51.92,164.62,1.96,51.68-8.16,278.37-76.76,352.67-114.38,123.88-453.26,312.37-544.97,255.73-141.06-87.12-262.55-561.9-184.89-721.51,28.33-58.23,63.1-123.41,121.22-155.6,9.23-17.48,19.67-34.32,31.22-50.35,5.05-7,10.31-13.86,16.18-20.2,18.76-20.25,43.63-34.77,70.49-41.13,13.4-.23,22.75,1.76,29.41,5.55,13.08,7.44,61.65,36.21,81.97,59.1,40.57-16.24,86.32-16.87,128.88-6.99,42.57,9.89,85.29,31.57,122,55.28,21.01-15.36,42.23-22.06,66.75-21.85,20.71.17,50.98,1.77,66.75,12.96,20.38,43.61,22.47,60.15,19.82,111.73Z"/>
    <path class="cls-1" d="M1349.25,1188.81c-25.99-1.72-52.22-1.23-78.16,1.04-24.91,2.18-50.81,5.56-74.04,15.28-1.75.73-.98,3.64.8,2.89,23.45-9.81,49.62-13.19,74.77-15.31,25.45-2.14,51.15-2.59,76.64-.91,1.93.13,1.92-2.87,0-3h0Z"/>
    <path class="cls-1" d="M1332.28,1223.21c-34.27-2.25-70.95-1.54-102.17,14.5-1.72.88-.2,3.47,1.51,2.59,30.73-15.78,66.94-16.3,100.66-14.09,1.93.13,1.92-2.87,0-3h0Z"/>
    <path class="cls-1" d="M1332.88,1253.7c-37.39-1.79-71.45,20.24-103.39,36.7-1.72.88-.2,3.47,1.51,2.59,31.46-16.21,65.04-38.05,101.87-36.29,1.93.09,1.93-2.91,0-3h0Z"/>
    <path class="cls-1" d="M1849.51,1234.84c31.19-.28,62.25,2.7,92.8,9,5.65,1.17,8.07-7.51,2.39-8.68-31.32-6.46-63.22-9.61-95.19-9.32-5.79.05-5.8,9.05,0,9h0Z"/>
    <path class="cls-1" d="M1866.62,1267.64c24.46.62,48.81,2.98,72.92,7.16,5.66.98,8.1-7.69,2.39-8.68-24.9-4.31-50.05-6.83-75.31-7.48-5.79-.15-5.79,8.85,0,9h0Z"/>
    <path class="cls-1" d="M1863.77,1303.28c24.99-.13,49.84,2.27,74.33,7.27,5.65,1.16,8.07-7.52,2.39-8.68-25.25-5.16-50.94-7.73-76.72-7.59-5.79.03-5.8,9.03,0,9h0Z"/>
    <path class="cls-1" d="M1742.9,1112.7c2.56,12.01,2.98,30.22.2,46.03-6.27,35.57-25.18,61.96-42.24,58.96-17.05-3.01-25.8-34.28-19.52-69.85,2.44-13.81,3.93-16.77,3.93-16.77"/>
    <path class="cls-1" d="M1507.11,1073.76c-5.94,11.43-11.46,29.74-13.06,46.52-3.59,37.74,8.16,69.73,26.26,71.45,18.1,1.72,35.68-27.47,39.27-65.21,1.4-14.65.71-18.07.71-18.07"/>
  </g>
  <g id="_レイヤー_4" data-name="レイヤー 4">
    <path class="cls-4" d="M1400.06,1159.89c-25.15-100.99-71.09-192.17-146.42-253.77-5.53-60.05-27.75-142.33-99.85-209.44-45.99,8.18-54.59,13.57-96.99,39.45-16.44,10.03-57.43,48.47-66.86,65.06-120.7-65.98-332.37-67.83-462.15,20.89-30.93-40.12-90.68-79.62-153.6-101.47-35.83-12.44-72.7-19.16-105.85-17-34.08,21.99-45.48,172.72-51.96,195.16-131.45,94.14-182.26,441.93,42.37,656.95,260.14,249,954.14,456.58,1084.94,222.51,59.52-88.7,115.55-380.67,56.37-618.33"/>
    <ellipse class="cls-1" cx="1073.24" cy="1089.66" rx="52.39" ry="109.27"/>
    <ellipse class="cls-1" cx="715.98" cy="1089.66" rx="52.39" ry="109.27"/>
    <path class="cls-1" d="M1333.83,1282.55c47.73-3.26,95.14-1.48,142.55,4.78,5.72.76,5.67-8.25,0-9-47.41-6.26-94.82-8.04-142.55-4.78-5.75.39-5.79,9.4,0,9h0Z"/>
    <path class="cls-1" d="M1329.43,1348.28c27.47-.5,55.06,1.83,82.25,5.62,25.25,3.52,50.83,8.06,74.95,16.51,5.48,1.92,7.83-6.77,2.39-8.68-24.61-8.62-50.74-13.19-76.51-16.73-27.49-3.78-55.31-6.23-83.08-5.73-5.78.1-5.8,9.11,0,9h0Z"/>
    <path class="cls-1" d="M1329.43,1432.03c51.36,2.78,101.99,15.31,148.69,36.91,5.22,2.42,9.8-5.34,4.54-7.77-48.2-22.3-100.19-35.27-153.23-38.14-5.79-.31-5.77,8.69,0,9h0Z"/>
  </g>
  <g id="_レイヤー_9" data-name="レイヤー 9">
    <path class="cls-3" d="M1168.42,1833.47c-521.09,0-943.51-422.42-943.51-943.51,0-400.81,249.94-743.24,602.45-879.96C379.4,109.99,44.56,509.86,44.56,987.96c0,553.41,448.63,1002.04,1002.04,1002.04,402.43,0,749.45-237.24,908.85-579.49-168.92,254.89-458.34,422.96-787.03,422.96Z"/>
  </g>
</svg>