<?xml version="1.0" encoding="UTF-8"?>
<svg xmlns="http://www.w3.org/2000/svg" viewBox="0 0 2000 2000">
  <defs>
    <style>
      .cls-1, .cls-2 {
        stroke-width: 0px;
      }

      .cls-2, .cls-3 {
        fill: #fff;
      }

      .cls-4 {
        fill: #87b9ff;
      }

      .cls-4, .cls-3 {
        stroke: #000;
        stroke-miterlimit: 10;
        stroke-width: 10px;
      }
    </style>
  </defs>
  <g id="_レイヤー_7" data-name="レイヤー 7">
    <path class="cls-4" d="M1038.56,420.24c.04.62,1.84,3.19,2.05,3.55,40.85,72.89,39.86,169.93,27.55,250.09-6.19,40.31-46.4,265.86-138.32,307.31-92.17,41.56-504.02,31.75-638.57-95.02-169.22-159.43-2.71-394.06-.54-427.81,3.48-54.21,18.28-107.65,43-156.02,20.53-40.16,42.49-66.16,76.64-95.09,14.6-12.37,52.97-30.99,77.77-33.59,45.23,20.41,91.56,58.07,110.5,84.19,29.67-8.41,125.5-4.58,149.51-.72,39.4,6.33,78.95,13.57,115.97,28.57,29.64-23.89,68.93-35.52,106.82-31.51,41.24,40.91,62.11,80.25,67.62,166.04Z"/>
    <path class="cls-1" d="M752.69,452.52c2.96,13.91,3.46,35,.23,53.32-7.26,41.2-29.17,71.77-48.92,68.29-19.75-3.48-29.88-39.71-22.62-80.91,2.82-16,7.85-30.39,14.1-41.81"/>
    <path class="cls-1" d="M977.55,624.61c42.89,5.51,85.32,14.1,126.99,25.64,1.86.52,2.66-2.38.8-2.89-41.93-11.61-84.63-20.2-127.79-25.75-1.91-.25-1.89,2.76,0,3h0Z"/>
    <path class="cls-1" d="M966.29,655.45c43.14,5.22,85.47,15.8,126.02,31.41,1.8.69,2.58-2.21.8-2.89-40.81-15.72-83.4-26.27-126.81-31.52-1.91-.23-1.9,2.77,0,3h0Z"/>
    <path class="cls-1" d="M975.24,703.84c43.97,3.72,87.04,15.05,127.14,33.45,1.74.8,3.27-1.79,1.51-2.59-40.62-18.63-84.13-30.09-128.66-33.86-1.92-.16-1.91,2.84,0,3h0Z"/>
    <path class="cls-1" d="M570.2,551.01c-42.71-9.6-86.06-16.14-129.69-19.59-5.77-.46-5.74,8.55,0,9,42.85,3.39,85.37,9.84,127.3,19.27,5.64,1.27,8.05-7.41,2.39-8.68h0Z"/>
    <path class="cls-1" d="M570.24,583.84c-42.83-9.97-86.78-14.64-130.75-13.83-5.78.11-5.8,9.11,0,9,43.2-.8,86.28,3.71,128.36,13.51,5.64,1.31,8.04-7.36,2.39-8.68h0Z"/>
    <path class="cls-1" d="M545.27,626.25c-43.22-11.71-88.26-15.91-132.89-12.28-5.73.47-5.78,9.47,0,9,43.89-3.56,88,.45,130.5,11.96,5.6,1.52,7.99-7.16,2.39-8.68h0Z"/>
    <path class="cls-1" d="M886.32,471.06c-6.17,12.81-11.64,33.19-12.84,51.75-2.69,41.75,11.35,76.64,31.37,77.93,20.02,1.29,38.43-31.51,41.12-73.25,1.05-16.21-.43-31.39-3.8-43.96"/>
  </g>
  <g id="_レイヤー_5" data-name="レイヤー 5">
    <path class="cls-4" d="M906.56,802.64c1.33-33.85,7.34-70.23,18.77-109.33,16.2-39.91,43.94-79.65,75.14-110.25,34.52-33.86,76.5-64.89,121.15-87.81,16.97-23.1,37.66-44.64,58.71-64.1,5.2-4.81,10.48-9.64,16.64-13.15,8.03-4.58,17.41-6.73,26.63-6.11,15.32,2.14,31.99,8.66,44.46,17.81,34.24,25.12,61.64,54.89,89.9,85.77,71.7.27,148.26,10.09,213.12,40.66,40.13,18.91,91.85,50.1,121.84,76.15,37.07-21.21,76.63-13.25,110.51-4.66,19.17,20.93,25.68,74.15,25.68,103.17,24.95,35.18,42.6,64.53,42.26,111.97,9.32,114.06-73.77,369.01-262.76,396.16-194.04,27.87-714.75-113.04-702.06-436.27Z"/>
    <g>
      <path class="cls-2" d="M1319.34,606.8c31.88,18,66.75,30.7,102.74,37.4"/>
      <path class="cls-1" d="M1317.06,610.68c32.32,18.14,67.4,30.97,103.81,37.85,5.66,1.07,8.09-7.6,2.39-8.68-35.69-6.75-69.98-19.17-101.66-36.94-5.06-2.84-9.6,4.93-4.54,7.77h0Z"/>
    </g>
    <g>
      <path class="cls-2" d="M1585.95,708.92c27.38,18,57.33,30.7,88.24,37.4"/>
      <path class="cls-1" d="M1583.68,712.81c27.27,17.81,57.48,30.83,89.31,37.85,5.64,1.24,8.06-7.43,2.39-8.68-31.14-6.87-60.48-19.52-87.16-36.94-4.86-3.18-9.38,4.61-4.54,7.77h0Z"/>
    </g>
  </g>
  <g id="_レイヤー_6" data-name="レイヤー 6">
    <path class="cls-4" d="M1859.97,1078.26c43.05,37.36,50.44,113.41,52.45,166.28s-8.24,281.18-77.53,356.23c-115.54,125.13-457.83,315.53-550.47,258.31-142.48-88-265.2-567.58-186.76-728.8,28.62-58.82,63.74-124.66,122.45-157.17,9.32-17.66,19.87-34.66,31.54-50.86,5.1-7.07,10.42-14,16.34-20.4,18.94-20.46,44.07-35.12,71.2-41.55,13.53-.23,22.97,1.77,29.71,5.61,13.21,7.52,62.28,36.57,82.8,59.7,40.98-16.4,87.19-17.05,130.18-7.06,43,9.99,86.15,31.89,123.23,55.84,21.22-15.52,42.66-22.28,67.42-22.07,20.92.18,51.49,1.78,67.42,13.09,20.59,44.05,22.7,60.76,20.02,112.86Z"/>
    <path class="cls-1" d="M1352.78,1190.73c-26.25-1.73-52.74-1.25-78.95,1.04-25.16,2.2-51.33,5.62-74.79,15.44-1.75.73-.98,3.64.8,2.89,23.69-9.91,50.12-13.32,75.52-15.46s51.67-2.62,77.42-.91c1.93.13,1.92-2.87,0-3h0Z"/>
    <path class="cls-1" d="M1335.63,1225.48c-34.62-2.27-71.66-1.56-103.2,14.64-1.72.88-.2,3.47,1.51,2.59,31.04-15.95,67.62-16.47,101.68-14.23,1.93.13,1.92-2.87,0-3h0Z"/>
    <path class="cls-1" d="M1336.25,1256.28c-37.76-1.81-72.17,20.45-104.42,37.07-1.72.88-.2,3.47,1.51,2.59,31.8-16.38,65.69-38.44,102.91-36.66,1.93.09,1.93-2.91,0-3h0Z"/>
    <path class="cls-1" d="M1858.09,1237.16c31.51-.29,62.89,2.73,93.75,9.09,5.65,1.17,8.07-7.51,2.39-8.68-31.63-6.52-63.85-9.71-96.14-9.41-5.79.05-5.8,9.05,0,9h0Z"/>
    <path class="cls-1" d="M1875.37,1270.3c24.71.63,49.31,3.01,73.67,7.23,5.66.98,8.1-7.69,2.39-8.68-25.15-4.35-50.55-6.9-76.06-7.55-5.79-.15-5.79,8.85,0,9h0Z"/>
    <path class="cls-1" d="M1872.49,1306.3c25.24-.14,50.35,2.29,75.09,7.35,5.65,1.16,8.07-7.52,2.39-8.68-25.5-5.21-51.45-7.81-77.48-7.67-5.79.03-5.8,9.03,0,9h0Z"/>
    <path class="cls-1" d="M1750.4,1113.84c2.58,12.13,3.01,30.52.2,46.49-6.33,35.93-25.44,62.59-42.66,59.55-17.23-3.04-26.06-34.62-19.72-70.55,2.46-13.95,3.97-16.94,3.97-16.94"/>
    <path class="cls-1" d="M1512.23,1074.5c-6,11.55-11.58,30.04-13.19,46.99-3.63,38.12,8.24,70.43,26.52,72.17,18.28,1.74,36.04-27.75,39.67-65.87,1.41-14.8.72-18.25.72-18.25"/>
  </g>
  <g id="_レイヤー_4" data-name="レイヤー 4">
    <path class="cls-4" d="M1404.1,1161.51c-25.4-102.01-71.81-194.11-147.9-256.34-5.59-60.65-28.03-143.77-100.86-211.55-46.45,8.27-55.14,13.71-97.97,39.85-16.6,10.13-58.01,48.96-67.54,65.71-121.92-66.65-335.72-68.52-466.82,21.1-31.24-40.52-91.59-80.43-155.15-102.5-36.2-12.57-73.43-19.35-106.92-17.17-34.42,22.21-45.93,174.47-52.49,197.13-132.77,95.09-184.1,446.39,42.8,663.58,262.77,251.52,963.78,461.19,1095.9,224.76,60.12-89.59,116.71-384.51,56.94-624.57"/>
    <ellipse class="cls-1" cx="1073.98" cy="1090.57" rx="52.92" ry="110.37"/>
    <ellipse class="cls-1" cx="713.11" cy="1090.57" rx="52.92" ry="110.37"/>
    <path class="cls-1" d="M1337.2,1285.35c48.21-3.29,96.1-1.5,143.99,4.83,5.72.76,5.67-8.25,0-9-47.88-6.33-95.78-8.12-143.99-4.83-5.75.39-5.79,9.4,0,9h0Z"/>
    <path class="cls-1" d="M1332.76,1351.76c27.74-.5,55.62,1.84,83.08,5.68,25.5,3.56,51.35,8.14,75.71,16.68,5.48,1.92,7.83-6.77,2.39-8.68-24.86-8.71-51.25-13.32-77.27-16.89-27.76-3.81-55.87-6.29-83.91-5.79-5.78.1-5.8,9.11,0,9h0Z"/>
    <path class="cls-1" d="M1332.76,1436.35c51.89,2.81,103.04,15.47,150.21,37.29,5.22,2.42,9.8-5.34,4.54-7.77-48.68-22.52-101.19-35.62-154.75-38.52-5.79-.31-5.77,8.69,0,9h0Z"/>
  </g>
  <g id="_レイヤー_9" data-name="レイヤー 9">
    <path class="cls-3" d="M1170.12,1841.89c-526.35,0-953.04-426.69-953.04-953.04C217.07,483.99,469.53,138.11,825.61,0,373.13,101,34.91,504.91,34.91,987.84c0,559,453.16,1012.16,1012.16,1012.16,406.5,0,757.02-239.63,918.03-585.34-170.63,257.46-462.97,427.23-794.98,427.23Z"/>
  </g>
</svg>